<svg width="32" height="32" viewBox="0 0 32 32" fill="none" xmlns="http://www.w3.org/2000/svg">
<path d="M31.3226 15.9205C31.2986 16.1859 31.2735 16.4512 31.2511 16.7165C31.0184 19.4592 30.0983 21.9539 28.5189 24.1994C26.9336 26.4531 24.8803 28.159 22.3879 29.3275C20.9325 30.0099 19.4052 30.4513 17.8081 30.6494C14.9805 31.0004 12.2557 30.6207 9.63609 29.5005C9.18745 29.3087 8.75962 29.0697 8.31647 28.8645C8.22698 28.8232 8.10099 28.8008 8.01071 28.8295C5.42212 29.6459 2.83627 30.4697 0.249635 31.292C0.177806 31.3148 0.104015 31.3329 0 31.362C0.210777 30.7398 0.410564 30.1494 0.610351 29.5594C1.27212 27.6024 1.93232 25.645 2.59958 23.6896C2.64472 23.5568 2.62981 23.4608 2.55955 23.3461C1.46288 21.5526 0.749299 19.6133 0.480431 17.5305C-0.0942021 13.0839 1.01738 9.09205 3.86935 5.63005C6.22479 2.7706 9.25418 0.991649 12.8916 0.295555C16.3484 -0.365558 19.6784 0.077018 22.8154 1.67792C26.6451 3.63217 29.2419 6.6795 30.5957 10.7708C31.0117 12.0281 31.2358 13.326 31.2904 14.6518C31.2931 14.7217 31.3112 14.7913 31.3222 14.8609C31.3226 15.2138 31.3226 15.5672 31.3226 15.9205ZM2.61803 28.8012C2.71498 28.7784 2.777 28.7682 2.83627 28.7494C4.62885 28.1779 6.42026 27.604 8.21481 27.0388C8.30548 27.0101 8.43854 27.0187 8.51744 27.0667C11.6469 28.9612 15.0142 29.5771 18.592 28.8563C22.0292 28.1637 24.8222 26.3793 26.9249 23.5721C28.9997 20.8018 29.8813 17.6657 29.5999 14.2076C29.4617 12.5092 29.0072 10.8989 28.2551 9.37426C27.3488 7.53635 26.0885 5.98026 24.4906 4.69813C22.4566 3.06657 20.1428 2.0863 17.562 1.76046C16.0312 1.56747 14.5004 1.61424 12.9865 1.94401C9.28165 2.75056 6.35315 4.72721 4.25322 7.87909C2.36094 10.7189 1.6764 13.8641 2.1168 17.2494C2.39548 19.392 3.1699 21.3458 4.39374 23.122C4.46479 23.225 4.47578 23.3103 4.43574 23.4278C3.92823 24.9136 3.42582 26.4009 2.92262 27.8878C2.82292 28.1814 2.72676 28.4754 2.61803 28.8012Z" fill="white"/>
<path d="M8.49157 11.5337C8.47626 10.6718 8.95669 9.70447 9.79273 8.89753C9.99173 8.70533 10.2343 8.60235 10.5201 8.61532C10.8003 8.6279 11.0833 8.61178 11.3596 8.64912C11.4527 8.6617 11.5618 8.78355 11.6073 8.88181C11.7882 9.27172 11.9472 9.67224 12.114 10.0688C12.3743 10.6875 12.6412 11.3034 12.8888 11.9272C12.9312 12.0337 12.9399 12.2055 12.8818 12.2911C12.6192 12.6775 12.3527 13.0666 12.0398 13.4117C11.5645 13.9368 11.508 14.2737 11.8758 14.8813C13.1487 16.9854 14.8922 18.5458 17.1766 19.4801C17.3681 19.5583 17.562 19.6451 17.7634 19.684C18.1206 19.7528 18.4209 19.6121 18.6489 19.3389C19.0795 18.8229 19.5026 18.3001 19.9218 17.775C20.0027 17.6736 20.0851 17.6551 20.1923 17.7015C20.4968 17.8336 20.8034 17.9613 21.1029 18.1032C21.8624 18.4632 22.6199 18.8276 23.3739 19.1994C23.4285 19.2261 23.4787 19.3264 23.4779 19.3916C23.4669 20.3998 23.1404 21.2295 22.218 21.7719C21.4695 22.2122 20.6774 22.4849 19.8205 22.3831C19.2263 22.3124 18.6414 22.1163 18.068 21.9276C17.091 21.6061 16.12 21.2625 15.2207 20.7488C13.834 19.9572 12.6474 18.9243 11.5994 17.7274C10.7465 16.7531 9.97446 15.7162 9.32251 14.5964C8.83148 13.7525 8.49235 12.8528 8.49157 11.5337Z" fill="white"/>
</svg>
