<svg width="188" height="93" viewBox="0 0 188 93" fill="none" xmlns="http://www.w3.org/2000/svg">
<path d="M26.2865 50.2387V77.3348H22.0756V62.6273L13.1699 76.8901H13.136L4.21088 62.6102V77.3348H0V50.2387H0.317026L13.1529 69.5205L25.9719 50.2387H26.2865Z" fill="white"/>
<path d="M33.8953 54.4244V61.3665H44.0498V65.6035H33.8953V73.1002H45.664V77.3348H29.682V50.2387H45.664V54.4244H33.8953Z" fill="white"/>
<path d="M66.849 54.4587H59.6566V77.3348H55.4288V54.4587H48.2365V50.2387H66.849V54.4587Z" fill="white"/>
<path d="M83.7578 73.215H71.055L69.2231 77.3324H64.6637L77.2818 49.684H77.5311L90.1492 77.3324H85.5874L83.7578 73.215ZM82.1267 69.5693L77.4149 58.9791L72.6861 69.5693H82.1267Z" fill="white"/>
<path d="M109.304 73.0978V77.3324H93.1234V50.2387H97.3343V73.0978H109.304Z" fill="white"/>
<path d="M110.248 63.8026C110.248 56.1715 116.557 49.7671 124.098 49.7671C127.578 49.8184 130.789 51.3138 133.42 53.9015L130.973 57.2467C129.093 55.3481 126.643 54.0872 124.015 54.0872C119.153 54.0872 114.509 58.3903 114.509 63.8197C114.509 69.2834 119.221 73.5009 124.032 73.5009C126.779 73.5009 129.143 72.1228 130.99 70.2731L133.42 73.7013C131.106 76.0031 128.158 77.7698 124.163 77.7698C116.557 77.7722 110.248 71.4508 110.248 63.8026Z" fill="white"/>
<path d="M134.329 63.8197C134.329 56.0885 140.556 49.7671 148.196 49.7671C155.822 49.7671 162.08 56.086 162.08 63.8197C162.08 71.485 155.822 77.7698 148.179 77.7698C140.556 77.7722 134.329 71.485 134.329 63.8197ZM157.818 63.7855C157.818 58.4245 153.474 54.053 148.179 54.053C142.884 54.053 138.574 58.4245 138.574 63.7855C138.574 69.1124 142.887 73.4667 148.179 73.4667C153.474 73.4692 157.818 69.1148 157.818 63.7855Z" fill="white"/>
<path d="M187.507 50.1727V77.8064H187.307L170.144 59.7024V77.369H165.933V49.7671H166.148L183.277 67.8369V50.1703H187.507V50.1727Z" fill="white"/>
<path d="M116.39 17.63L114.083 18.9763L101.739 26.1701L97.1358 28.853H97.131L93.7526 30.8225L90.3718 28.853H90.367L85.7689 26.1701H85.7641L73.4194 18.9763V18.9715L71.1131 17.63L70.0289 16.9947L68.8116 16.2885V40.7114L73.4194 38.0235V24.3472L81.1563 28.8604L85.7592 31.5409L92.4869 35.4652L93.5009 36.0541L93.7526 36.1982L94.0019 36.0541L95.0159 35.4652L101.748 31.5409L106.351 28.8604L114.083 24.3472V38.0235L118.696 40.7114V16.2885L116.39 17.63Z" fill="white"/>
<path d="M73.4218 24.3398V38.021L68.8116 40.7114V21.6544L70.0313 22.363L71.1179 22.9983L73.4218 24.3398Z" fill="white"/>
<path d="M114.086 24.3398V38.021L118.696 40.7114V21.6544L117.479 22.363L116.392 22.9983L114.086 24.3398Z" fill="white"/>
<path d="M118.694 14.5462L116.387 15.8877L114.079 17.2292L101.734 24.4303L97.131 27.1083L95.8895 27.8316L93.7502 29.0778L90.3645 27.1083H90.3597L85.7616 24.4303H85.7568L81.2773 21.8157L73.4194 17.2292H73.4121L71.1082 15.8877L70.0265 15.2549H70.0216L68.8092 14.5462L73.4073 11.8608L89.1424 2.68542L93.7453 0L98.3483 2.68542L93.7453 5.3684L78.003 14.5389L93.7453 23.7167L114.091 11.8608L118.084 14.187L118.694 14.5462Z" fill="white"/>
<path d="M6.82211 85.1125V92.2964H5.72825V88.3965L3.4171 92.1791H3.40742L1.09144 88.3916V92.2964H0V85.1125H0.0822815L3.41226 90.2267L6.73982 85.1125H6.82211Z" fill="white"/>
<path d="M9.26158 86.3514V88.1522H11.897V89.2518H9.26158V91.1969H12.3157V92.2964H8.16772V85.264H12.3157V86.3514H9.26158Z" fill="white"/>
<path d="M17.8188 86.3612H15.953V92.2989H14.8567V86.3612H12.9908V85.2665H17.8213V86.3612H17.8188Z" fill="white"/>
<path d="M22.2114 91.2287H18.9153L18.4409 92.2965H17.2551L20.5294 85.1199H20.5948L23.8691 92.2965H22.6857L22.2114 91.2287ZM21.7879 90.283L20.5657 87.5341L19.3388 90.283H21.7879Z" fill="white"/>
<path d="M28.847 91.1993V92.2989H24.6482V85.2665H25.7421V91.1993H28.847Z" fill="white"/>
<path d="M31.9858 88.7851C31.9858 86.8059 33.6242 85.1418 35.5796 85.1418C36.4823 85.1541 37.3172 85.5426 37.9997 86.2145L37.3656 87.082C36.8767 86.5884 36.2427 86.261 35.5602 86.261C34.2994 86.261 33.0942 87.3777 33.0942 88.7876C33.0942 90.2048 34.3163 91.2995 35.5651 91.2995C36.279 91.2995 36.8913 90.9427 37.3704 90.4614L38.0021 91.3508C37.4019 91.947 36.6372 92.4064 35.599 92.4064C33.6242 92.4113 31.9858 90.7717 31.9858 88.7851Z" fill="white"/>
<path d="M38.2417 88.79C38.2417 86.7839 39.8583 85.1418 41.8403 85.1418C43.8199 85.1418 45.4438 86.7814 45.4438 88.79C45.4438 90.779 43.8199 92.4113 41.8355 92.4113C39.8583 92.4113 38.2417 90.779 38.2417 88.79ZM44.3378 88.7827C44.3378 87.3899 43.21 86.2561 41.8355 86.2561C40.4609 86.2561 39.3428 87.3899 39.3428 88.7827C39.3428 90.1657 40.4609 91.2946 41.8355 91.2946C43.21 91.2946 44.3378 90.1657 44.3378 88.7827Z" fill="white"/>
<path d="M52.0528 85.2494V92.4211H52.002L47.5443 87.7222V92.3062H46.4504V85.1443H46.5061L50.9517 89.8334V85.2494H52.0528Z" fill="white"/>
<path d="M52.9941 91.0625L53.8581 90.4394C54.1679 90.9892 54.7487 91.302 55.419 91.302C56.2007 91.302 56.7936 90.9232 56.7936 90.3857C56.7936 89.7357 55.8764 89.3423 55.0657 88.9904C54.2501 88.6239 53.3426 88.1963 53.3426 87.0942C53.3426 85.9434 54.3324 85.1394 55.586 85.1394C56.5806 85.1394 57.3236 85.6233 57.6092 86.3954L56.796 86.9623C56.5806 86.4858 56.0991 86.2219 55.5957 86.2219C54.9568 86.2219 54.4462 86.6227 54.4462 87.1211C54.4462 87.6709 55.0899 87.8664 55.9369 88.2329C57.038 88.7216 57.8947 89.2592 57.8947 90.3661C57.8947 91.6123 56.8227 92.4162 55.4093 92.4162C54.2598 92.4162 53.391 91.8738 52.9941 91.0625Z" fill="white"/>
<path d="M63.1947 86.3612H61.3288V92.2989H60.2326V86.3612H58.3667V85.2665H63.1971V86.3612H63.1947Z" fill="white"/>
<path d="M67.8943 92.2989L66.0187 89.5768H65.1621V92.2989H64.0682L64.0634 85.2665H66.2269C67.524 85.2665 68.5864 86.2732 68.5864 87.5267C68.5864 88.4333 68.008 89.2225 67.207 89.484L69.2326 92.2989H67.8943ZM66.2559 88.6605C66.9117 88.6654 67.4611 88.1278 67.4611 87.4998C67.4611 86.845 66.9045 86.3612 66.2559 86.3612H65.1572V88.6605H66.2559Z" fill="white"/>
<path d="M69.6078 89.633V85.2665H70.7041V89.6281C70.7041 90.6007 71.3817 91.3117 72.2335 91.3117C73.0854 91.3117 73.7727 90.6007 73.7727 89.6281V85.2665H74.8738V89.633C74.8738 91.2482 73.7194 92.4284 72.2384 92.4284C70.7573 92.4284 69.6078 91.2458 69.6078 89.633Z" fill="white"/>
<path d="M75.8176 88.7851C75.8176 86.8059 77.456 85.1418 79.4114 85.1418C80.3141 85.1541 81.149 85.5426 81.8314 86.2145L81.1974 87.082C80.7085 86.5884 80.0745 86.261 79.392 86.261C78.1312 86.261 76.926 87.3777 76.926 88.7876C76.926 90.2048 78.1481 91.2995 79.3969 91.2995C80.1108 91.2995 80.7231 90.9427 81.2022 90.4614L81.8339 91.3508C81.2337 91.947 80.469 92.4064 79.4308 92.4064C77.456 92.4113 75.8176 90.7717 75.8176 88.7851Z" fill="white"/>
<path d="M87.0683 86.3612H85.2025V92.2989H84.1062V86.3612H82.2404V85.2665H87.0708V86.3612H87.0683Z" fill="white"/>
<path d="M87.942 85.2665H89.0359V92.2989H87.942V85.2665Z" fill="white"/>
<path d="M90.0426 88.79C90.0426 86.7839 91.6592 85.1418 93.6412 85.1418C95.6208 85.1418 97.2446 86.7814 97.2446 88.79C97.2446 90.779 95.6208 92.4113 93.6364 92.4113C91.6592 92.4113 90.0426 90.779 90.0426 88.79ZM96.1387 88.7827C96.1387 87.3899 95.011 86.2561 93.6364 86.2561C92.2618 86.2561 91.1437 87.3899 91.1437 88.7827C91.1437 90.1657 92.2618 91.2946 93.6364 91.2946C95.011 91.2946 96.1387 90.1657 96.1387 88.7827Z" fill="white"/>
<path d="M103.852 85.2494V92.4211H103.798L99.3455 87.7222V92.3062H98.2516V85.1443H98.3073L102.753 89.8334V85.2494H103.852Z" fill="white"/>
<path d="M113.592 92.36C113.113 92.3551 112.476 92.0717 111.811 91.6221C111.295 92.1499 110.613 92.4333 109.836 92.4333C108.258 92.4333 107.455 91.2775 107.455 90.239C107.455 89.3887 108.011 88.5774 108.631 88.2109C108.367 87.7173 108.207 87.2555 108.207 86.8621C108.207 85.9898 109.006 85.0905 110.047 85.0905C110.988 85.0905 111.731 85.8285 111.862 86.6691L110.804 86.8694C110.751 86.4418 110.407 86.1095 110.013 86.1095C109.611 86.1095 109.287 86.454 109.287 86.8987C109.287 87.7149 110.366 89.1272 111.504 90.1364C111.673 89.7577 111.772 89.2934 111.794 88.7802L112.822 88.768C112.806 89.5744 112.641 90.2635 112.368 90.8133C112.842 91.1358 113.275 91.3313 113.594 91.3313L113.592 92.36ZM110.935 90.9403C110.274 90.3734 109.638 89.6966 109.151 89.0222C108.737 89.3178 108.495 89.7112 108.495 90.1706C108.495 90.8377 108.941 91.3533 109.783 91.3533C110.235 91.3508 110.625 91.2067 110.935 90.9403Z" fill="white"/>
<path d="M116.731 88.7851C116.731 86.8059 118.369 85.1418 120.325 85.1418C121.227 85.1541 122.062 85.5426 122.745 86.2145L122.108 87.082C121.619 86.5884 120.985 86.261 120.303 86.261C119.042 86.261 117.837 87.3777 117.837 88.7876C117.837 90.2048 119.059 91.2995 120.308 91.2995C121.022 91.2995 121.634 90.9427 122.113 90.4614L122.745 91.3508C122.144 91.947 121.38 92.4064 120.342 92.4064C118.369 92.4113 116.731 90.7717 116.731 88.7851Z" fill="white"/>
<path d="M122.987 88.79C122.987 86.7839 124.603 85.1418 126.585 85.1418C128.565 85.1418 130.189 86.7814 130.189 88.79C130.189 90.779 128.565 92.4113 126.58 92.4113C124.603 92.4113 122.987 90.779 122.987 88.79ZM129.083 88.7827C129.083 87.3899 127.955 86.2561 126.58 86.2561C125.206 86.2561 124.088 87.3899 124.088 88.7827C124.088 90.1657 125.208 91.2946 126.58 91.2946C127.957 91.2946 129.083 90.1657 129.083 88.7827Z" fill="white"/>
<path d="M135.397 91.1993V92.2989H131.198V85.2665H132.292V91.1993H135.397Z" fill="white"/>
<path d="M141.849 88.79C141.849 90.9501 140.469 92.2964 138.257 92.2964H136.275V85.264H138.257C140.469 85.2616 141.849 86.6128 141.849 88.79ZM140.743 88.7851C140.743 87.2946 139.784 86.3611 138.255 86.3611H137.364V91.1993H138.267C139.787 91.1993 140.743 90.2683 140.743 88.7851Z" fill="white"/>
<path d="M145.048 91.0625L145.912 90.4394C146.224 90.9892 146.802 91.302 147.473 91.302C148.254 91.302 148.847 90.9232 148.847 90.3857C148.847 89.7357 147.932 89.3423 147.119 88.9904C146.304 88.6239 145.396 88.1963 145.396 87.0942C145.396 85.9434 146.386 85.1394 147.64 85.1394C148.634 85.1394 149.377 85.6233 149.66 86.3954L148.847 86.9623C148.632 86.4858 148.153 86.2219 147.647 86.2219C147.008 86.2219 146.497 86.6227 146.497 87.1211C146.497 87.6709 147.141 87.8664 147.988 88.2329C149.089 88.7216 149.946 89.2592 149.946 90.3661C149.946 91.6123 148.874 92.4162 147.463 92.4162C146.311 92.4162 145.445 91.8738 145.048 91.0625Z" fill="white"/>
<path d="M155.246 86.3612H153.38V92.2989H152.282V86.3612H150.416V85.2665H155.246V86.3612Z" fill="white"/>
<path d="M155.439 88.79C155.439 86.7839 157.056 85.1418 159.038 85.1418C161.018 85.1418 162.642 86.7814 162.642 88.79C162.642 90.779 161.018 92.4113 159.033 92.4113C157.056 92.4113 155.439 90.779 155.439 88.79ZM161.536 88.7827C161.536 87.3899 160.408 86.2561 159.033 86.2561C157.659 86.2561 156.541 87.3899 156.541 88.7827C156.541 90.1657 157.659 91.2946 159.033 91.2946C160.408 91.2946 161.536 90.1657 161.536 88.7827Z" fill="white"/>
<path d="M167.477 92.2989L165.601 89.5768H164.747V92.2989H163.653L163.648 85.2665H165.812C167.109 85.2665 168.171 86.2732 168.171 87.5267C168.171 88.4333 167.593 89.2225 166.794 89.484L168.82 92.2989H167.477ZM165.841 88.6605C166.497 88.6654 167.046 88.1278 167.046 87.4998C167.046 86.845 166.489 86.3612 165.841 86.3612H164.742V88.6605H165.841Z" fill="white"/>
<path d="M173.946 91.2287H170.649L170.173 92.2965H168.989L172.264 85.1199H172.329L175.603 92.2965H174.42L173.946 91.2287ZM173.522 90.283L172.3 87.5341L171.073 90.283H173.522Z" fill="white"/>
<path d="M182.35 89.0075C182.35 91.0967 180.847 92.4137 179.037 92.4137C177.009 92.4137 175.402 90.7839 175.402 88.7876C175.402 86.7888 177.019 85.1443 178.996 85.1443C179.872 85.1492 180.876 85.5768 181.532 86.2219L180.922 87.1382C180.378 86.5982 179.642 86.2561 178.982 86.2561C177.711 86.2561 176.511 87.3288 176.511 88.7876C176.511 90.1657 177.595 91.2995 179.081 91.2995C180.279 91.2995 181.177 90.5616 181.177 89.4889V89.4669H179.02V88.4552H182.316C182.336 88.6214 182.35 88.812 182.35 89.0075Z" fill="white"/>
<path d="M184.453 86.3514V88.1522H187.089V89.2518H184.453V91.1969H187.507V92.2964H183.359V85.264H187.507V86.3514H184.453Z" fill="white"/>
</svg>
