<svg width="101" height="50" viewBox="0 0 101 50" fill="none" xmlns="http://www.w3.org/2000/svg">
<path d="M14.0332 26.8203V41.2857H11.7852V33.434L7.03079 41.0483H7.0127L2.24799 33.4249V41.2857H0V26.8203H0.169245L7.02175 37.114L13.8652 26.8203H14.0332Z" fill="white"/>
<path d="M18.095 29.0549V32.7609H23.516V35.0229H18.095V39.025H24.3777V41.2857H15.8457V26.8203H24.3777V29.0549H18.095Z" fill="white"/>
<path d="M35.6875 29.0731H31.8478V41.2857H29.5908V29.0731H25.7511V26.8203H35.6875V29.0731Z" fill="white"/>
<path d="M44.7144 39.0861H37.9329L36.9549 41.2841H34.5209L41.2571 26.5239H41.3902L48.1264 41.2841H45.6911L44.7144 39.0861ZM43.8436 37.1398L41.3282 31.4862L38.8037 37.1398H43.8436Z" fill="white"/>
<path d="M58.3522 39.0237V41.2844H49.7142V26.8203H51.9622V39.0237H58.3522Z" fill="white"/>
<path d="M58.8561 34.0613C58.8561 29.9874 62.2242 26.5684 66.2499 26.5684C68.1077 26.5958 69.8222 27.3941 71.2265 28.7755L69.9203 30.5614C68.9165 29.5478 67.609 28.8747 66.206 28.8747C63.6105 28.8747 61.1312 31.1719 61.1312 34.0704C61.1312 36.9872 63.6466 39.2388 66.215 39.2388C67.6814 39.2388 68.9436 38.503 69.9294 37.5156L71.2265 39.3457C69.9914 40.5746 68.4178 41.5177 66.2848 41.5177C62.2242 41.519 58.8561 38.1443 58.8561 34.0613Z" fill="white"/>
<path d="M71.7123 34.0704C71.7123 29.943 75.0365 26.5684 79.1152 26.5684C83.1861 26.5684 86.5271 29.9417 86.5271 34.0704C86.5271 38.1626 83.1861 41.5177 79.1061 41.5177C75.0365 41.519 71.7123 38.1626 71.7123 34.0704ZM84.2519 34.0522C84.2519 31.1901 81.9329 28.8564 79.1061 28.8564C76.2793 28.8564 73.9784 31.1901 73.9784 34.0522C73.9784 36.8959 76.2806 39.2205 79.1061 39.2205C81.9329 39.2218 84.2519 36.8972 84.2519 34.0522Z" fill="white"/>
<path d="M100.102 26.7849V41.5373H99.9944L90.8319 31.8724V41.3038H88.5839V26.5684H88.6988L97.8433 36.215V26.7836H100.102V26.7849Z" fill="white"/>
<path d="M62.1351 9.41172L60.9039 10.1305L54.3136 13.9709L51.8563 15.4032H51.8537L50.0502 16.4546L48.2453 15.4032H48.2428L45.788 13.9709H45.7855L39.1952 10.1305V10.1279L37.964 9.41172L37.3852 9.07255L36.7354 8.69556V21.7338L39.1952 20.2989V12.9977L43.3256 15.4071L45.7829 16.8381L49.3745 18.9331L49.9158 19.2475L50.0502 19.3245L50.1833 19.2475L50.7246 18.9331L54.3188 16.8381L56.7761 15.4071L60.9039 12.9977V20.2989L63.3663 21.7338V8.69556L62.1351 9.41172Z" fill="white"/>
<path d="M39.1965 12.9939V20.2977L36.7354 21.7339V11.5603L37.3865 11.9386L37.9666 12.2778L39.1965 12.9939Z" fill="white"/>
<path d="M60.9052 12.9939V20.2977L63.3663 21.7339V11.5603L62.7165 11.9386L62.1364 12.2778L60.9052 12.9939Z" fill="white"/>
<path d="M63.365 7.76557L62.1337 8.48172L60.9012 9.19788L54.311 13.0422L51.8537 14.4719L51.1909 14.858L50.0489 15.5233L48.2414 14.4719H48.2388L45.7841 13.0422H45.7815L43.3901 11.6464L39.1952 9.19788H39.1913L37.9614 8.48172L37.3839 8.14386H37.3813L36.734 7.76557L39.1887 6.33194L47.589 1.43362L50.0463 0L52.5036 1.43362L50.0463 2.86594L41.6421 7.76165L50.0463 12.6613L60.9077 6.33194L63.0394 7.57381L63.365 7.76557Z" fill="white"/>
<path d="M3.64201 45.4377V49.2729H3.05805V47.191L1.82423 49.2103H1.81907L0.582669 47.1884V49.2729H0V45.4377H0.0439263L1.82165 48.168L3.59808 45.4377H3.64201Z" fill="white"/>
<path d="M4.94431 46.0988V47.0602H6.35125V47.6472H4.94431V48.6856H6.57475V49.2726H4.36035V45.5183H6.57475V46.0988H4.94431Z" fill="white"/>
<path d="M9.51262 46.1042H8.51653V49.2741H7.93127V46.1042H6.93518V45.5198H9.51391V46.1042H9.51262Z" fill="white"/>
<path d="M11.8575 48.7026H10.0978L9.8446 49.2727H9.21155L10.9596 45.4414H10.9944L12.7424 49.2727H12.1107L11.8575 48.7026ZM11.6314 48.1978L10.9789 46.7302L10.3239 48.1978H11.6314Z" fill="white"/>
<path d="M15.4 48.6871V49.2741H13.1584V45.5198H13.7424V48.6871H15.4Z" fill="white"/>
<path d="M17.0757 47.3981C17.0757 46.3415 17.9503 45.4531 18.9942 45.4531C19.4761 45.4596 19.9219 45.6671 20.2862 46.0258L19.9477 46.4889C19.6867 46.2254 19.3482 46.0506 18.9839 46.0506C18.3108 46.0506 17.6674 46.6467 17.6674 47.3994C17.6674 48.156 18.3198 48.7404 18.9865 48.7404C19.3676 48.7404 19.6945 48.55 19.9503 48.293L20.2875 48.7678C19.9671 49.0861 19.5588 49.3313 19.0046 49.3313C17.9503 49.334 17.0757 48.4586 17.0757 47.3981Z" fill="white"/>
<path d="M20.4154 47.4007C20.4154 46.3297 21.2784 45.4531 22.3365 45.4531C23.3933 45.4531 24.2602 46.3284 24.2602 47.4007C24.2602 48.4626 23.3933 49.334 22.3339 49.334C21.2784 49.334 20.4154 48.4626 20.4154 47.4007ZM23.6698 47.3968C23.6698 46.6532 23.0678 46.048 22.3339 46.048C21.6001 46.048 21.0032 46.6532 21.0032 47.3968C21.0032 48.1351 21.6001 48.7378 22.3339 48.7378C23.0678 48.7378 23.6698 48.1351 23.6698 47.3968Z" fill="white"/>
<path d="M27.7886 45.5107V49.3393H27.7615L25.3817 46.8308V49.278H24.7977V45.4546H24.8274L27.2008 47.9579V45.5107H27.7886Z" fill="white"/>
<path d="M28.2911 48.614L28.7524 48.2813C28.9177 48.5748 29.2278 48.7418 29.5857 48.7418C30.003 48.7418 30.3195 48.5396 30.3195 48.2526C30.3195 47.9056 29.8298 47.6956 29.397 47.5078C28.9617 47.3121 28.4772 47.0838 28.4772 46.4955C28.4772 45.8811 29.0056 45.4519 29.6748 45.4519C30.2058 45.4519 30.6024 45.7102 30.7549 46.1224L30.3208 46.425C30.2058 46.1707 29.9487 46.0298 29.68 46.0298C29.3389 46.0298 29.0663 46.2437 29.0663 46.5098C29.0663 46.8033 29.41 46.9077 29.8621 47.1034C30.45 47.3643 30.9073 47.6513 30.9073 48.2422C30.9073 48.9075 30.335 49.3366 29.5805 49.3366C28.9668 49.3366 28.503 49.0471 28.2911 48.614Z" fill="white"/>
<path d="M33.7366 46.1042H32.7405V49.2741H32.1553V46.1042H31.1592V45.5198H33.7379V46.1042H33.7366Z" fill="white"/>
<path d="M36.2457 49.2741L35.2445 47.8209H34.7871V49.2741H34.2031L34.2006 45.5198H35.3556C36.0481 45.5198 36.6152 46.0572 36.6152 46.7264C36.6152 47.2104 36.3064 47.6317 35.8788 47.7713L36.9602 49.2741H36.2457ZM35.3711 47.3317C35.7212 47.3343 36.0145 47.0473 36.0145 46.7121C36.0145 46.3625 35.7173 46.1042 35.3711 46.1042H34.7845V47.3317H35.3711Z" fill="white"/>
<path d="M37.1603 47.8509V45.5198H37.7455V47.8483C37.7455 48.3675 38.1073 48.7471 38.562 48.7471C39.0168 48.7471 39.3837 48.3675 39.3837 47.8483V45.5198H39.9716V47.8509C39.9716 48.7131 39.3553 49.3432 38.5646 49.3432C37.774 49.3432 37.1603 48.7118 37.1603 47.8509Z" fill="white"/>
<path d="M40.4755 47.3981C40.4755 46.3415 41.3501 45.4531 42.394 45.4531C42.8759 45.4596 43.3216 45.6671 43.686 46.0258L43.3475 46.4889C43.0865 46.2254 42.748 46.0506 42.3837 46.0506C41.7106 46.0506 41.0672 46.6467 41.0672 47.3994C41.0672 48.156 41.7196 48.7404 42.3863 48.7404C42.7674 48.7404 43.0942 48.55 43.3501 48.293L43.6872 48.7678C43.3668 49.0861 42.9586 49.3313 42.4043 49.3313C41.3501 49.334 40.4755 48.4586 40.4755 47.3981Z" fill="white"/>
<path d="M46.4817 46.1042H45.4856V49.2741H44.9004V46.1042H43.9043V45.5198H46.483V46.1042H46.4817Z" fill="white"/>
<path d="M46.9482 45.5198H47.5322V49.2741H46.9482V45.5198Z" fill="white"/>
<path d="M48.0696 47.4007C48.0696 46.3297 48.9326 45.4531 49.9907 45.4531C51.0475 45.4531 51.9144 46.3284 51.9144 47.4007C51.9144 48.4626 51.0475 49.334 49.9881 49.334C48.9326 49.334 48.0696 48.4626 48.0696 47.4007ZM51.324 47.3968C51.324 46.6532 50.722 46.048 49.9881 46.048C49.2543 46.048 48.6574 46.6532 48.6574 47.3968C48.6574 48.1351 49.2543 48.7378 49.9881 48.7378C50.722 48.7378 51.324 48.1351 51.324 47.3968Z" fill="white"/>
<path d="M55.4415 45.5107V49.3393H55.4131L53.0359 46.8308V49.278H52.4519V45.4546H52.4816L54.8549 47.9579V45.5107H55.4415Z" fill="white"/>
<path d="M60.6415 49.3066C60.3857 49.304 60.0459 49.1527 59.6906 48.9127C59.4154 49.1944 59.0511 49.3457 58.6364 49.3457C57.794 49.3457 57.3651 48.7287 57.3651 48.1743C57.3651 47.7204 57.6623 47.2873 57.993 47.0916C57.8522 46.8281 57.7669 46.5816 57.7669 46.3715C57.7669 45.9058 58.1933 45.4258 58.7488 45.4258C59.2514 45.4258 59.648 45.8197 59.7178 46.2685L59.1532 46.3754C59.1247 46.1472 58.9413 45.9697 58.7307 45.9697C58.5162 45.9697 58.3431 46.1537 58.3431 46.3911C58.3431 46.8268 58.9193 47.5808 59.5265 48.1195C59.617 47.9173 59.67 47.6695 59.6816 47.3955L60.2307 47.389C60.2216 47.8195 60.1338 48.1874 59.9878 48.4809C60.241 48.6531 60.4723 48.7574 60.6428 48.7574L60.6415 49.3066ZM59.2229 48.5487C58.8702 48.2461 58.5305 47.8847 58.2708 47.5247C58.0498 47.6825 57.9207 47.8925 57.9207 48.1378C57.9207 48.4939 58.1584 48.7692 58.608 48.7692C58.8496 48.7679 59.0576 48.6909 59.2229 48.5487Z" fill="white"/>
<path d="M62.3173 47.3981C62.3173 46.3415 63.1919 45.4531 64.2358 45.4531C64.7177 45.4596 65.1634 45.6671 65.5278 46.0258L65.188 46.4889C64.927 46.2254 64.5885 46.0506 64.2242 46.0506C63.5511 46.0506 62.9077 46.6467 62.9077 47.3994C62.9077 48.156 63.5601 48.7404 64.2268 48.7404C64.6079 48.7404 64.9348 48.55 65.1906 48.293L65.5278 48.7678C65.2074 49.0861 64.7991 49.3313 64.2448 49.3313C63.1919 49.334 62.3173 48.4586 62.3173 47.3981Z" fill="white"/>
<path d="M65.6569 47.4007C65.6569 46.3297 66.5199 45.4531 67.578 45.4531C68.6348 45.4531 69.5017 46.3284 69.5017 47.4007C69.5017 48.4626 68.6348 49.334 67.5754 49.334C66.5199 49.334 65.6569 48.4626 65.6569 47.4007ZM68.9113 47.3968C68.9113 46.6532 68.3092 46.048 67.5754 46.048C66.8416 46.048 66.2447 46.6532 66.2447 47.3968C66.2447 48.1351 66.8429 48.7378 67.5754 48.7378C68.3105 48.7378 68.9113 48.1351 68.9113 47.3968Z" fill="white"/>
<path d="M72.2821 48.6871V49.2741H70.0405V45.5198H70.6245V48.6871H72.2821Z" fill="white"/>
<path d="M75.7263 47.4007C75.7263 48.5538 74.9899 49.2726 73.8091 49.2726H72.751V45.5183H73.8091C74.9899 45.517 75.7263 46.2384 75.7263 47.4007ZM75.1359 47.3981C75.1359 46.6023 74.6243 46.104 73.8078 46.104H73.3324V48.6869H73.8143C74.6256 48.6869 75.1359 48.1899 75.1359 47.3981Z" fill="white"/>
<path d="M77.4343 48.614L77.8956 48.2813C78.0622 48.5748 78.371 48.7418 78.7289 48.7418C79.1462 48.7418 79.4627 48.5396 79.4627 48.2526C79.4627 47.9056 78.9743 47.6956 78.5402 47.5078C78.1048 47.3121 77.6204 47.0838 77.6204 46.4955C77.6204 45.8811 78.1488 45.4519 78.818 45.4519C79.349 45.4519 79.7456 45.7102 79.8968 46.1224L79.4627 46.425C79.3477 46.1707 79.0919 46.0298 78.8219 46.0298C78.4808 46.0298 78.2082 46.2437 78.2082 46.5098C78.2082 46.8033 78.5519 46.9077 79.004 47.1034C79.5919 47.3643 80.0492 47.6513 80.0492 48.2422C80.0492 48.9075 79.4769 49.3366 78.7237 49.3366C78.1087 49.3366 77.6462 49.0471 77.4343 48.614Z" fill="white"/>
<path d="M82.8787 46.1042H81.8826V49.2741H81.296V46.1042H80.2999V45.5198H82.8787V46.1042Z" fill="white"/>
<path d="M82.9819 47.4007C82.9819 46.3297 83.845 45.4531 84.9031 45.4531C85.9599 45.4531 86.8268 46.3284 86.8268 47.4007C86.8268 48.4626 85.9599 49.334 84.9005 49.334C83.845 49.334 82.9819 48.4626 82.9819 47.4007ZM86.2364 47.3968C86.2364 46.6532 85.6343 46.048 84.9005 46.048C84.1667 46.048 83.5698 46.6532 83.5698 47.3968C83.5698 48.1351 84.1667 48.7378 84.9005 48.7378C85.6343 48.7378 86.2364 48.1351 86.2364 47.3968Z" fill="white"/>
<path d="M89.4081 49.2741L88.4069 47.8209H87.9508V49.2741H87.3668L87.3643 45.5198H88.5193C89.2117 45.5198 89.7789 46.0572 89.7789 46.7264C89.7789 47.2104 89.4701 47.6317 89.0438 47.7713L90.1252 49.2741H89.4081ZM88.5348 47.3317C88.8849 47.3343 89.1782 47.0473 89.1782 46.7121C89.1782 46.3625 88.881 46.1042 88.5348 46.1042H87.9482V47.3317H88.5348Z" fill="white"/>
<path d="M92.8615 48.7026H91.1019L90.8473 49.2727H90.2156L91.9636 45.4414H91.9985L93.7465 49.2727H93.1147L92.8615 48.7026ZM92.6354 48.1978L91.983 46.7302L91.328 48.1978H92.6354Z" fill="white"/>
<path d="M97.3485 47.517C97.3485 48.6323 96.5462 49.3354 95.5798 49.3354C94.4971 49.3354 93.6393 48.4653 93.6393 47.3996C93.6393 46.3325 94.5023 45.4546 95.5578 45.4546C96.0255 45.4572 96.5617 45.6855 96.9118 46.0299L96.5862 46.519C96.2955 46.2308 95.9028 46.0481 95.5501 46.0481C94.8718 46.0481 94.231 46.6208 94.231 47.3996C94.231 48.1353 94.8098 48.7406 95.603 48.7406C96.2426 48.7406 96.7219 48.3466 96.7219 47.774V47.7622H95.5707V47.2222H97.3304C97.3407 47.3109 97.3485 47.4126 97.3485 47.517Z" fill="white"/>
<path d="M98.4712 46.0988V47.0602H99.8781V47.6472H98.4712V48.6856H100.102V49.2726H97.8872V45.5183H100.102V46.0988H98.4712Z" fill="white"/>
</svg>
