<svg width="44" height="43" viewBox="0 0 44 43" fill="none" xmlns="http://www.w3.org/2000/svg">
<path d="M40.2787 32.8413C40.2787 33.4863 40.132 34.1492 39.8203 34.7942C39.5087 35.4392 39.1053 36.0483 38.5737 36.6217C37.6753 37.5892 36.6853 38.2879 35.567 38.7358C34.467 39.1838 33.2753 39.4167 31.992 39.4167C30.122 39.4167 28.1237 38.9867 26.0153 38.1088C23.907 37.2308 21.7987 36.0483 19.7087 34.5613C17.6003 33.0563 15.602 31.39 13.6953 29.5446C11.807 27.6813 10.102 25.7283 8.58032 23.6858C7.07699 21.6433 5.86699 19.6008 4.98699 17.5763C4.10699 15.5338 3.66699 13.5808 3.66699 11.7175C3.66699 10.4992 3.88699 9.33459 4.32699 8.25959C4.76699 7.16667 5.46366 6.16334 6.43533 5.2675C7.60866 4.13875 8.89199 3.58334 10.2487 3.58334C10.762 3.58334 11.2753 3.69084 11.7337 3.90584C12.2103 4.12084 12.632 4.44334 12.962 4.90917L17.2153 10.7679C17.5453 11.2158 17.7837 11.6279 17.9487 12.0221C18.1137 12.3983 18.2053 12.7746 18.2053 13.115C18.2053 13.545 18.077 13.975 17.8203 14.3871C17.582 14.7992 17.2337 15.2292 16.7937 15.6592L15.4003 17.0746C15.1987 17.2717 15.107 17.5046 15.107 17.7913C15.107 17.9346 15.1253 18.06 15.162 18.2033C15.217 18.3467 15.272 18.4542 15.3087 18.5617C15.6387 19.1529 16.207 19.9233 17.0137 20.855C17.8387 21.7867 18.7187 22.7363 19.672 23.6858C20.662 24.6354 21.6153 25.5133 22.587 26.3196C23.5403 27.1079 24.3287 27.6454 24.952 27.9679C25.0437 28.0038 25.1537 28.0575 25.282 28.1113C25.4287 28.165 25.5753 28.1829 25.7403 28.1829C26.052 28.1829 26.2903 28.0754 26.492 27.8783L27.8853 26.5346C28.3437 26.0867 28.7837 25.7463 29.2053 25.5313C29.627 25.2804 30.0487 25.155 30.507 25.155C30.8553 25.155 31.222 25.2267 31.6253 25.3879C32.0287 25.5492 32.4503 25.7821 32.9087 26.0867L38.977 30.2971C39.4537 30.6196 39.7837 30.9958 39.9853 31.4438C40.1687 31.8917 40.2787 32.3396 40.2787 32.8413Z" stroke="black" stroke-width="1.5" stroke-miterlimit="10"/>
<path d="M33.9167 16.125C33.9167 15.05 33.055 13.4017 31.7717 12.0579C30.5983 10.8217 29.04 9.85417 27.5 9.85417" stroke="black" stroke-width="1.5" stroke-linecap="round" stroke-linejoin="round"/>
<path d="M40.3333 16.125C40.3333 9.19125 34.595 3.58334 27.5 3.58334" stroke="black" stroke-width="1.5" stroke-linecap="round" stroke-linejoin="round"/>
</svg>
